<?xml version="1.0" encoding="UTF-8"?>
<svg version="1.1" xmlns="http://www.w3.org/2000/svg" width="351" height="237">
<path d="M0 0 C115.83 0 231.66 0 351 0 C351 78.21 351 156.42 351 237 C235.17 237 119.34 237 0 237 C0 158.79 0 80.58 0 0 Z " fill="#1E1920" transform="translate(0,0)"/>
<path d="M0 0 C0.66 0 1.32 0 2 0 C2.32871094 0.67804687 2.65742188 1.35609375 2.99609375 2.0546875 C6.27095039 8.46240158 9.94413877 13.54161483 14.94921875 18.7109375 C19.77351831 24.09577472 20.59205679 28.06093837 20.42578125 35.17578125 C20 38 20 38 17.6875 41.1875 C15 43 15 43 12 44 C12.9178125 44.01417969 13.835625 44.02835938 14.78125 44.04296875 C22.40347137 44.33921055 28.18752647 44.7840698 34 50 C38.19065932 54.59620699 38.39919394 59.26406408 38.3515625 65.265625 C37.795264 69.59239113 36.23525646 71.13238632 33 74 C29.30892245 76.46354029 25.85379673 76.26714093 21.5 76.25 C20.1903125 76.25515625 18.880625 76.2603125 17.53125 76.265625 C14.29071973 76.0218683 12.71850367 75.61571444 10 74 C9.34 74 8.68 74 8 74 C12.62947614 86.87096113 17.76956651 98.21995408 30.5 104.8125 C39.79389449 107.8809041 49.45057906 106.7368925 58.171875 102.62109375 C65.09180254 98.6545607 71.11925003 94.05590904 75 87 C76.65 87.33 78.3 87.66 80 88 C80.30292969 89.12277344 80.60585937 90.24554688 80.91796875 91.40234375 C85.46524879 107.85425205 85.46524879 107.85425205 97 120 C102.3251594 122.6625797 109.69669516 121.74227044 115.17578125 119.9765625 C128.23917579 113.84303614 138.51240144 103.00454549 145.0625 90.25 C148.81899655 83.08126804 153.43997507 79.01632152 161.1328125 76.45703125 C163.46990629 75.8849811 165.60721107 75.77567604 168 76 C168 76.66 168 77.32 168 78 C167.34 78 166.68 78 166 78 C165.690625 78.79277344 165.690625 78.79277344 165.375 79.6015625 C163.42758352 82.99847647 160.71138577 85.58773878 158 88.375 C153.57874821 93.03358517 149.46153475 97.75485909 145.75 103 C145.34716797 103.56799316 144.94433594 104.13598633 144.52929688 104.72119141 C142.45262045 107.71548868 140.53798308 110.75540189 138.734375 113.921875 C133.23213343 123.44295764 133.23213343 123.44295764 129.390625 125.1796875 C126.75 125.625 126.75 125.625 124.2265625 125.8125 C120.77291828 126.1033332 119.27101111 127.46181111 117 130 C114.90012185 133.53550913 113.29949962 137.10150115 112 141 C99.46 141 86.92 141 74 141 C74 140.01 74 139.02 74 138 C71.03 138 68.06 138 65 138 C65 138.99 65 139.98 65 141 C24.08 141 -16.84 141 -59 141 C-59 140.34 -59 139.68 -59 139 C-57.66666667 137.66666667 -56.33333333 136.33333333 -55 135 C-53.02015052 129.06045155 -53.02187493 122.33862196 -55.5625 116.5625 C-57.9766264 112.41668576 -60.55894659 110.76110739 -65 109 C-68.19142252 108.73989657 -68.19142252 108.73989657 -71 110 C-75.73756916 114.99365398 -76.34168888 118.41314758 -76.2890625 125.10546875 C-75.68974855 131.10670713 -72.54196045 135.30788712 -69 140 C-74.56817481 140.22333783 -80.13371858 140.38617494 -85.70532227 140.49438477 C-87.59803699 140.53950716 -89.49044034 140.60082605 -91.38208008 140.67895508 C-107.20049464 141.31568684 -107.20049464 141.31568684 -111.69873047 138.02685547 C-113.52734375 135.58984375 -113.52734375 135.58984375 -114.79663086 133.14428711 C-116.23365855 130.58364312 -117.25787521 129.95614633 -120 129 C-121.670625 128.9690625 -121.670625 128.9690625 -123.375 128.9375 C-128.96016607 127.4930605 -130.14743901 123.77507474 -133 119 C-134.73459117 116.34998957 -136.51905973 113.73545195 -138.3125 111.125 C-138.78896973 110.43059814 -139.26543945 109.73619629 -139.75634766 109.02075195 C-145.88117031 100.17758585 -152.80451508 92.17702193 -160.046875 84.23828125 C-162.33158245 81.62000652 -164.20346518 78.96818796 -166 76 C-158.05583668 76.56744024 -152.00709175 78.44467839 -146.5625 84.5 C-144.52614481 86.94140676 -143.59657712 88.87311305 -143 92 C-142.34 92 -141.68 92 -141 92 C-140.731875 90.906875 -140.46375 89.81375 -140.1875 88.6875 C-138.5282167 83.53498871 -138.5282167 83.53498871 -136 82 C-132.88188517 81.61023565 -130.88980433 81.49577755 -128.125 83.0625 C-126.36236817 86.09814371 -126.62668891 88.57798172 -127 92 C-127.99 92.66 -128.98 93.32 -130 94 C-130 94.66 -130 95.32 -130 96 C-128.51023541 95.29273802 -127.03337004 94.55826094 -125.5625 93.8125 C-124.32693359 93.20341797 -124.32693359 93.20341797 -123.06640625 92.58203125 C-120.75309288 91.13366813 -120.75309288 91.13366813 -120.21484375 88.32421875 C-120.10849609 87.17373047 -120.10849609 87.17373047 -120 86 C-119.21625 86.350625 -118.4325 86.70125 -117.625 87.0625 C-116.325625 87.5265625 -116.325625 87.5265625 -115 88 C-112.81846156 87.18437076 -112.81846156 87.18437076 -112.1875 85 C-111.5996875 84.01 -111.5996875 84.01 -111 83 C-108.4375 82.375 -108.4375 82.375 -106 82 C-105.67 81.34 -105.34 80.68 -105 80 C-103.35 80 -101.7 80 -100 80 C-100 79.34 -100 78.68 -100 78 C-99.195625 77.71125 -98.39125 77.4225 -97.5625 77.125 C-94.8673532 76.26737432 -94.8673532 76.26737432 -94 74 C-93.01 74 -92.02 74 -91 74 C-91 74.99 -91 75.98 -91 77 C-90.34 77 -89.68 77 -89 77 C-88.62875 75.63875 -88.62875 75.63875 -88.25 74.25 C-86.89649254 70.73088059 -86.10640228 69.12543314 -83 67 C-78.06667872 66.29523982 -76.15562097 66.22958602 -72 69 C-69.79190168 72.31214748 -69.18986108 74.14990423 -69.44921875 78.0625 C-70.49658446 81.74685029 -72.83270073 83.12308191 -76 85 C-79.19408205 85.67959192 -80.96045751 85.64913653 -83.7578125 83.90234375 C-84.9286658 83.03307387 -86.07575734 82.13047764 -87.19140625 81.19140625 C-89.54083903 79.64372375 -91.18629772 79.17717466 -94 79 C-96.64218377 80.09501311 -96.64218377 80.09501311 -99.125 81.8125 C-99.97320312 82.35519531 -100.82140625 82.89789063 -101.6953125 83.45703125 C-102.45585938 83.96621094 -103.21640625 84.47539063 -104 85 C-107 87 -107 87 -110 87 C-110 87.66 -110 88.32 -110 89 C-113.22301124 90.82361067 -116.45438259 92.63187665 -119.6875 94.4375 C-120.59951172 94.95376953 -121.51152344 95.47003906 -122.45117188 96.00195312 C-123.33740234 96.49501953 -124.22363281 96.98808594 -125.13671875 97.49609375 C-125.94842529 97.95169678 -126.76013184 98.4072998 -127.59643555 98.87670898 C-130.0737892 100.03448493 -132.30701528 100.5787627 -135 101 C-129.98262794 110.73960458 -120.85769977 116.81153529 -111 121 C-104.25214796 122.23552221 -97.88588824 121.69310635 -92 118 C-83.10335259 110.47355208 -80.06517731 99.07686012 -78 88 C-76.35 87.67 -74.7 87.34 -73 87 C-72.68289062 87.49628906 -72.36578125 87.99257812 -72.0390625 88.50390625 C-66.11261886 97.13162945 -57.25004017 103.51155094 -47 106 C-38.40876068 106.92198666 -30.16921998 106.519266 -22.8828125 101.55859375 C-13.80921543 94.17987613 -9.78522843 84.83647253 -6 74 C-6.8353125 74.32226562 -7.670625 74.64453125 -8.53125 74.9765625 C-12.32926058 76.0971467 -15.54497313 76.33480664 -19.5 76.375 C-20.7684375 76.40335937 -22.036875 76.43171875 -23.34375 76.4609375 C-28.43544875 75.81903531 -31.51486502 73.68315298 -34.875 69.875 C-36.98731892 64.47685165 -36.72406533 59.13197014 -34.875 53.6875 C-31.99644284 49.56156808 -28.86637047 46.62212349 -24 45 C-21.60745424 44.77439324 -19.21071877 44.59151405 -16.8125 44.4375 C-15.54019531 44.35371094 -14.26789063 44.26992188 -12.95703125 44.18359375 C-11.98121094 44.12300781 -11.00539062 44.06242187 -10 44 C-10.96164063 43.54882812 -11.92328125 43.09765625 -12.9140625 42.6328125 C-16 41 -16 41 -17.375 38.875 C-18.63310966 33.08769558 -19.07158596 28.17472259 -15.9375 22.9375 C-14.00198012 20.1599743 -11.84514229 17.6831889 -9.5625 15.1875 C-5.42624223 10.6430589 -2.74220438 5.46431935 0 0 Z " fill="#FBFBFB" transform="translate(175,9)"/>
<path d="M0 0 C3.11758063 1.58935483 5.48738941 3.4222782 8.1875 5.625 C9.85112417 5.97320041 11.51745171 6.30904492 13.1875 6.625 C13.8475 7.615 14.5075 8.605 15.1875 9.625 C14.1975 9.625 13.2075 9.625 12.1875 9.625 C12.0946875 11.4503125 12.0946875 11.4503125 12 13.3125 C10.68522246 24.4618135 6.00395671 34.48786838 -2.8125 41.625 C-9.52119329 44.46054103 -16.76521684 45.07321153 -23.68359375 42.59765625 C-30.64947782 39.03072838 -36.25100258 34.07236221 -41.8125 28.625 C-42.4003125 28.10292969 -42.988125 27.58085938 -43.59375 27.04296875 C-44.8125 25.625 -44.8125 25.625 -44.8125 22.625 C-43.82894531 22.22667969 -42.84539063 21.82835938 -41.83203125 21.41796875 C-36.7681991 19.248848 -32.08885712 16.44319237 -27.33398438 13.67773438 C-22.01550954 10.625 -22.01550954 10.625 -19.8125 10.625 C-19.8125 9.965 -19.8125 9.305 -19.8125 8.625 C-18.636875 8.068125 -18.636875 8.068125 -17.4375 7.5 C-15.30520726 6.46661936 -13.40317798 5.34875805 -11.43359375 4.01953125 C-4.71392871 -0.46366512 -4.71392871 -0.46366512 0 0 Z " fill="#1E1920" transform="translate(84.8125,87.375)"/>
<path d="M0 0 C4.8623317 1.21558292 6.81140937 3.64310417 10 7.25 C10.52078125 7.82363281 11.0415625 8.39726562 11.578125 8.98828125 C14.51699379 12.24626963 17.25152529 15.56440662 20 19 C20.33 12.73 20.66 6.46 21 0 C22.65 0 24.3 0 26 0 C26 8.58 26 17.16 26 26 C27.65 26 29.3 26 31 26 C33.60088622 23.39911378 33.29962225 22.17862887 33.4140625 18.5546875 C33.45273438 17.47832031 33.49140625 16.40195313 33.53125 15.29296875 C33.57765625 13.60107422 33.57765625 13.60107422 33.625 11.875 C33.66367188 10.73933594 33.70234375 9.60367188 33.7421875 8.43359375 C33.83667601 5.62256044 33.92223541 2.81153767 34 0 C35.65 0 37.3 0 39 0 C39 5.61 39 11.22 39 17 C44.54111123 18.10822225 45.38166659 17.75134756 50 15 C51.34789347 14.01971384 52.68212715 13.02028865 54 12 C56.44501023 10.43268575 58.724855 9.105825 61.4375 8.0625 C64.18823926 7.04934475 64.18823926 7.04934475 66.875 4.8125 C70 3 70 3 73.75 3 C77 4 77 4 78.4375 6.0625 C78.623125 6.701875 78.80875 7.34125 79 8 C78.34 8.99 77.68 9.98 77 11 C76.34 11 75.68 11 75 11 C74.814375 11.928125 74.814375 11.928125 74.625 12.875 C74 15 74 15 72 17 C69.60523047 18.00832401 67.19373645 18.93003962 64.75 19.8125 C62.72397202 20.89592732 62.72397202 20.89592732 62.4375 23.5 C62.293125 24.325 62.14875 25.15 62 26 C59 28 59 28 56 27.75 C48.07339133 27.51588076 40.2629065 34.32357183 34.0703125 38.703125 C31.79615898 40.12768909 29.48832555 41.00704338 27 42 C25.19019362 43.15145753 25.19019362 43.15145753 23.5625 44.4375 C15.89165241 50.04503934 15.89165241 50.04503934 11.375 49.9375 C8.32549038 48.7337462 6.90848233 47.68601216 5 45 C4.75 41.25 4.75 41.25 5 38 C6.66666667 37.33333333 8.33333333 36.66666667 10 36 C11.2065625 35.505 11.2065625 35.505 12.4375 35 C15.26176688 33.89784707 18.11765081 32.93843927 21 32 C19.63582505 26.10965519 16.54545874 22.92428746 12.4375 18.75 C11.24689013 17.5173686 10.05800194 16.28307118 8.87109375 15.046875 C8.08109985 14.24008301 8.08109985 14.24008301 7.27514648 13.41699219 C6 12 6 12 5 10 C5 16.6 5 23.2 5 30 C3.35 30 1.7 30 0 30 C0 20.1 0 10.2 0 0 Z " fill="#241F26" transform="translate(218,174)"/>
<path d="M0 0 C1.32 0 2.64 0 4 0 C4 3.96 4 7.92 4 12 C8.95 12 13.9 12 19 12 C19 8.04 19 4.08 19 0 C20.98 0 22.96 0 25 0 C25 8.58 25 17.16 25 26 C26.65 26.33 28.3 26.66 30 27 C30.22042969 26.195625 30.22042969 26.195625 30.4453125 25.375 C32.07734113 19.67227928 33.9220034 14.03750818 35.875 8.4375 C36.10719238 7.72271484 36.33938477 7.00792969 36.57861328 6.27148438 C37.3046875 4.24609375 37.3046875 4.24609375 39 1 C41.6953125 0.03515625 41.6953125 0.03515625 44 0 C45.10697816 2.81142124 46.21063123 5.62407652 47.3125 8.4375 C47.7755957 9.6121582 47.7755957 9.6121582 48.24804688 10.81054688 C54 25.5234375 54 25.5234375 54 30 C53.43152344 30.09796875 52.86304688 30.1959375 52.27734375 30.296875 C48.18288406 31.08979207 44.71664531 31.95616922 41.125 34.125 C38 36 38 36 35 36 C35 36.66 35 37.32 35 38 C33.948125 38.495 32.89625 38.99 31.8125 39.5 C26.6144424 42.05261757 21.85978652 45.28035797 17.05078125 48.48828125 C14 50 14 50 11.25 49.83203125 C8.23016831 48.71532266 6.87225439 47.63502469 5 45 C4.75 41.25 4.75 41.25 5 38 C8.62342492 36.5080015 12.28355927 35.23881358 16 34 C17.67163195 33.34588315 19.34015202 32.68346682 21 32 C20.67 31.34 20.34 30.68 20 30 C19.86003931 25.33091139 19.95752715 20.67201378 20 16 C14.72 16 9.44 16 4 16 C4 20.29 4 24.58 4 29 C2.68 29 1.36 29 0 29 C0 19.43 0 9.86 0 0 Z " fill="#28232A" transform="translate(124,174)"/>
<path d="M0 0 C1.3303125 0.02126953 1.3303125 0.02126953 2.6875 0.04296875 C4.0178125 0.05263672 4.0178125 0.05263672 5.375 0.0625 C7.6875 0.23046875 7.6875 0.23046875 9.6875 1.23046875 C9.3575 2.55046875 9.0275 3.87046875 8.6875 5.23046875 C5.7175 4.90046875 2.7475 4.57046875 -0.3125 4.23046875 C-1.0680432 6.97172525 -1.0680432 6.97172525 -0.3125 10.23046875 C1.84176318 12.0844407 4.07782908 13.48952021 6.5234375 14.93359375 C8.6875 16.23046875 8.6875 16.23046875 10.6875 18.23046875 C11.2506333 22.49419233 11.14056076 24.54357017 8.75 28.16796875 C4.73218984 30.8738409 1.41839406 31.07210721 -3.3125 30.23046875 C-4.3025 29.57046875 -5.2925 28.91046875 -6.3125 28.23046875 C-6.5 25.60546875 -6.5 25.60546875 -6.3125 23.23046875 C-5.590625 23.72546875 -4.86875 24.22046875 -4.125 24.73046875 C-1.15457346 26.31469624 0.3862658 26.59727255 3.6875 26.23046875 C4.92105006 25.18469763 4.92105006 25.18469763 5.125 22.91796875 C4.93151027 19.94099222 4.93151027 19.94099222 2 17.85546875 C-1.08129141 16.02732065 -1.08129141 16.02732065 -3.875 16.29296875 C-6.57822942 17.33267237 -8.86676972 18.685797 -11.3125 20.23046875 C-12.3025 20.56046875 -13.2925 20.89046875 -14.3125 21.23046875 C-14.415625 22.01421875 -14.51875 22.79796875 -14.625 23.60546875 C-15.3125 26.23046875 -15.3125 26.23046875 -18.3125 28.23046875 C-20.43359375 28.5390625 -20.43359375 28.5390625 -22.75 28.66796875 C-26.55412724 29.00036822 -28.37182136 29.7254462 -31.3125 32.23046875 C-32.6325 32.23046875 -33.9525 32.23046875 -35.3125 32.23046875 C-35.3125 32.89046875 -35.3125 33.55046875 -35.3125 34.23046875 C-39.57846531 37.56609056 -44.58245262 39.90734889 -49.43359375 42.26171875 C-52.21323588 43.69488143 -54.73992537 45.45825067 -57.3125 47.23046875 C-59.89312237 48.992845 -61.74848138 50.11766503 -64.8125 50.73046875 C-68.58236894 49.97649496 -70.0198095 48.24371912 -72.3125 45.23046875 C-72.8254523 42.0245169 -72.90191578 40.23594273 -71.25 37.41796875 C-68.44137392 35.69655277 -65.55014155 35.68487458 -62.3125 35.23046875 C-60.04795927 33.76275604 -60.04795927 33.76275604 -58.3125 32.23046875 C-57.6525 32.23046875 -56.9925 32.23046875 -56.3125 32.23046875 C-55.9825 30.58046875 -55.6525 28.93046875 -55.3125 27.23046875 C-51.64944766 26.48120804 -48.88894848 25.99246735 -45.3125 27.23046875 C-44.9825 26.24046875 -44.6525 25.25046875 -44.3125 24.23046875 C-43.6525 23.90046875 -42.9925 23.57046875 -42.3125 23.23046875 C-42.209375 22.59109375 -42.10625 21.95171875 -42 21.29296875 C-41.3125 19.23046875 -41.3125 19.23046875 -39 17.98046875 C-36.3125 17.23046875 -36.3125 17.23046875 -32.3125 17.23046875 C-28.7689588 16.07881786 -26.22938393 14.50928432 -23.3125 12.23046875 C-20.82516057 10.6360204 -18.50452459 9.30540518 -15.75 8.23046875 C-13.27830039 7.33578575 -13.27830039 7.33578575 -11.3125 5.73046875 C-9.08757303 4.06177352 -6.88814267 3.2471698 -4.3125 2.23046875 C-2.3125 0.23046875 -2.3125 0.23046875 0 0 Z " fill="#262128" transform="translate(106.3125,173.76953125)"/>
<path d="M0 0 C4.91135276 1.49094637 7.25451469 3.92738233 9.8125 8.3125 C11.73073999 15.98545994 10.43267005 21.18680145 6.69140625 28.09375 C5.5 30.0625 5.5 30.0625 4.5 31.0625 C16.38 31.3925 28.26 31.7225 40.5 32.0625 C40.5 32.3925 40.5 32.7225 40.5 33.0625 C27.96 33.0625 15.42 33.0625 2.5 33.0625 C2.5 32.0725 2.5 31.0825 2.5 30.0625 C-0.47 30.0625 -3.44 30.0625 -6.5 30.0625 C-6.5 31.0525 -6.5 32.0425 -6.5 33.0625 C-47.42 33.0625 -88.34 33.0625 -130.5 33.0625 C-130.17 32.4025 -129.84 31.7425 -129.5 31.0625 C-89.9 31.0625 -50.3 31.0625 -9.5 31.0625 C-10.82 28.4225 -12.14 25.7825 -13.5 23.0625 C-14.58208112 17.51030446 -14.20514905 12.54067259 -11.3125 7.625 C-8.08972922 3.2376986 -5.74841908 0.10265034 0 0 Z " fill="#332E35" transform="translate(246.5,116.9375)"/>
<path d="M0 0 C3.5060303 0.86943897 4.94966563 2.56083702 6.9375 5.48046875 C7.59568618 9.57584945 7.46560026 11.60707216 5.3125 15.16796875 C2.66196956 17.74874838 0.18175281 19.69281924 -3.0625 21.48046875 C-4.31160156 21.42246094 -4.31160156 21.42246094 -5.5859375 21.36328125 C-8.12346762 21.19936921 -8.12346762 21.19936921 -9.51171875 22.984375 C-9.92035156 23.66371094 -10.32898438 24.34304687 -10.75 25.04296875 C-14.22960637 30.139729 -18.74346354 33.4191528 -24.0625 36.48046875 C-24.7225 36.48046875 -25.3825 36.48046875 -26.0625 36.48046875 C-26.0625 35.82046875 -26.0625 35.16046875 -26.0625 34.48046875 C-26.805 34.39796875 -27.5475 34.31546875 -28.3125 34.23046875 C-31.7052671 33.30516863 -32.99377504 32.31538814 -35.0625 29.48046875 C-35.5625 26.41796875 -35.5625 26.41796875 -35.0625 23.48046875 C-32.36457089 20.58269304 -29.83477154 20.19899666 -26.0625 19.48046875 C-22.84553038 18.33037989 -22.84553038 18.33037989 -20.0625 16.48046875 C-19.7325 15.61421875 -19.4025 14.74796875 -19.0625 13.85546875 C-18.7325 13.07171875 -18.4025 12.28796875 -18.0625 11.48046875 C-14.9375 10.66796875 -14.9375 10.66796875 -12.0625 10.48046875 C-12.000625 9.75859375 -11.93875 9.03671875 -11.875 8.29296875 C-10.09756878 2.14032222 -6.17908838 -0.4330043 0 0 Z " fill="#29242B" transform="translate(258.0625,75.51953125)"/>
<path d="M0 0 C3.86603917 0.55229131 5.58640503 0.90138827 8.5 3.5 C12.37082164 9.72367402 13.64802586 15.39555445 12.02734375 22.6015625 C10.38938984 27.83909177 8.14984726 30.58244878 3.5 33.5 C-0.65277542 34.36516154 -2.08283517 33.76175048 -5.6875 31.5 C-10.04109076 27.44350467 -11.60328628 22.27934493 -11.875 16.4375 C-11.3358595 10.77652472 -9.69420677 7.05910328 -6.25 2.5625 C-3.5 0.5 -3.5 0.5 0 0 Z " fill="#F4F4F4" transform="translate(176.5,112.5)"/>
<path d="M0 0 C3.59006454 0.80332137 4.97678728 2.4476028 6.97265625 5.44140625 C7.72873958 8.30413399 7.784102 10.58695877 6.97265625 13.44140625 C4.14591292 16.67197005 2.24569332 18.1705473 -1.96484375 19.06640625 C-5.55578064 18.33356199 -7.45231399 16.96139532 -10.21875 14.6328125 C-12.56818278 13.08513 -14.21364147 12.61858091 -17.02734375 12.44140625 C-19.66952752 13.53641936 -19.66952752 13.53641936 -22.15234375 15.25390625 C-23.00054687 15.79660156 -23.84875 16.33929688 -24.72265625 16.8984375 C-25.48320313 17.40761719 -26.24375 17.91679688 -27.02734375 18.44140625 C-30.02734375 20.44140625 -30.02734375 20.44140625 -33.02734375 20.44140625 C-33.02734375 21.10140625 -33.02734375 21.76140625 -33.02734375 22.44140625 C-36.23106154 24.24141936 -39.44108247 26.02989093 -42.65234375 27.81640625 C-43.55597656 28.32429688 -44.45960937 28.8321875 -45.390625 29.35546875 C-49.85327373 31.8310987 -54.07492888 34.07579019 -59.02734375 35.44140625 C-61.47294664 32.96885457 -63.50328246 30.5828387 -65.02734375 27.44140625 C-64.7461693 23.27734653 -63.23805993 19.90148403 -60.5859375 16.703125 C-59.02734375 15.44140625 -59.02734375 15.44140625 -56.02734375 15.06640625 C-53.02734375 15.44140625 -53.02734375 15.44140625 -51.15234375 16.50390625 C-49.38971192 19.53954996 -49.65403266 22.01938797 -50.02734375 25.44140625 C-51.01734375 26.10140625 -52.00734375 26.76140625 -53.02734375 27.44140625 C-53.02734375 28.10140625 -53.02734375 28.76140625 -53.02734375 29.44140625 C-51.53757916 28.73414427 -50.06071379 27.99966719 -48.58984375 27.25390625 C-47.35427734 26.64482422 -47.35427734 26.64482422 -46.09375 26.0234375 C-43.78043663 24.57507438 -43.78043663 24.57507438 -43.2421875 21.765625 C-43.17128906 20.99863281 -43.10039063 20.23164062 -43.02734375 19.44140625 C-41.85171875 19.96734375 -41.85171875 19.96734375 -40.65234375 20.50390625 C-39.78609375 20.81328125 -38.91984375 21.12265625 -38.02734375 21.44140625 C-35.84580531 20.62577701 -35.84580531 20.62577701 -35.21484375 18.44140625 C-34.82296875 17.78140625 -34.43109375 17.12140625 -34.02734375 16.44140625 C-31.46484375 15.81640625 -31.46484375 15.81640625 -29.02734375 15.44140625 C-28.69734375 14.78140625 -28.36734375 14.12140625 -28.02734375 13.44140625 C-26.37734375 13.44140625 -24.72734375 13.44140625 -23.02734375 13.44140625 C-23.02734375 12.78140625 -23.02734375 12.12140625 -23.02734375 11.44140625 C-22.22296875 11.15265625 -21.41859375 10.86390625 -20.58984375 10.56640625 C-17.89469695 9.70878057 -17.89469695 9.70878057 -17.02734375 7.44140625 C-16.03734375 7.44140625 -15.04734375 7.44140625 -14.02734375 7.44140625 C-14.02734375 8.43140625 -14.02734375 9.42140625 -14.02734375 10.44140625 C-13.36734375 10.44140625 -12.70734375 10.44140625 -12.02734375 10.44140625 C-11.77984375 9.53390625 -11.53234375 8.62640625 -11.27734375 7.69140625 C-9.02140607 1.82596827 -6.56116116 -0.38017943 0 0 Z " fill="#29242B" transform="translate(98.02734375,75.55859375)"/>
<path d="M0 0 C4.87362847 0.45336079 7.39042389 1.7089159 11 5 C11.33 4.01 11.66 3.02 12 2 C12.46696289 2.97791504 12.93392578 3.95583008 13.41503906 4.96337891 C15.57756798 8.08022399 15.57756798 8.08022399 17.94909668 8.53631592 C20.43816919 8.69522281 22.86666709 8.67403981 25.359375 8.5859375 C26.26375305 8.57744781 27.1681311 8.56895813 28.09991455 8.56021118 C30.98449557 8.52666085 33.86626621 8.45138076 36.75 8.375 C38.70699084 8.34490241 40.66402555 8.31752624 42.62109375 8.29296875 C47.41514302 8.22686431 52.20709531 8.12333286 57 8 C57 8.66 57 9.32 57 10 C45.12 10 33.24 10 21 10 C21 10.66 21 11.32 21 12 C20.0925 12.433125 19.185 12.86625 18.25 13.3125 C15.07658157 14.82885236 15.07658157 14.82885236 12.875 16.6875 C11 18 11 18 7 18 C7 18.66 7 19.32 7 20 C4.78045349 21.37257477 2.55164591 22.72259151 0.3125 24.0625 C-0.31333984 24.45244141 -0.93917969 24.84238281 -1.58398438 25.24414062 C-4.45528947 26.94287087 -6.43488641 28.02276152 -9.8125 27.88671875 C-12.98419088 26.6010512 -14.22763523 24.88829814 -16 22 C-16.48502602 19.0898439 -16.47299076 17.7357634 -14.875 15.25 C-13 14 -13 14 -10.25 13.5625 C-6.10809607 12.84563201 -3.55921806 11.2067152 0 9 C0 6.03 0 3.06 0 0 Z " fill="#2A252C" transform="translate(50,140)"/>
<path d="M0 0 C4.73436712 0.99670887 5.93470771 2.77077167 8.5625 6.75 C10.86253437 10.91196695 11.12781318 15.08160726 10.5625 19.75 C9.5 23.1875 9.5 23.1875 7.5625 25.75 C4.1875 26.9375 4.1875 26.9375 0.5625 26.75 C-3.90324722 23.40068959 -6.93165687 19.17986316 -7.7578125 13.578125 C-7.96316124 9.49852994 -7.53830409 6.97983331 -5.875 3.1875 C-3.4375 0.75 -3.4375 0.75 0 0 Z " fill="#F8F8F8" transform="translate(108.4375,120.25)"/>
<path d="M0 0 C4.8623317 1.21558292 6.81140937 3.64310417 10 7.25 C10.52078125 7.82363281 11.0415625 8.39726562 11.578125 8.98828125 C14.51699379 12.24626963 17.25152529 15.56440662 20 19 C20.33 12.73 20.66 6.46 21 0 C22.32 0 23.64 0 25 0 C25 9.9 25 19.8 25 30 C22 30 22 30 20.4921875 28.6015625 C19.95851562 27.94929688 19.42484375 27.29703125 18.875 26.625 C15.29850165 22.34542933 11.58132229 18.21954949 7.8203125 14.1015625 C6 12 6 12 5 10 C5 16.6 5 23.2 5 30 C3.35 30 1.7 30 0 30 C0 20.1 0 10.2 0 0 Z " fill="#F1F1F2" transform="translate(218,174)"/>
<path d="M0 0 C2.71241534 2.65855872 3.88956518 4.35119546 4.53125 8.12109375 C4.45381138 16.33926704 3.82955002 20.17044998 -2 26 C-4.875 26.4375 -4.875 26.4375 -8 26 C-11.67922203 22.32077797 -13.13821961 18.95791993 -13.375 13.8125 C-13.34077315 8.58434888 -11.32680791 4.95184455 -8 1 C-5.12529507 -0.43735246 -3.18105412 -0.38172649 0 0 Z " fill="#F9F9F9" transform="translate(249,121)"/>
<path d="M0 0 C1.32 0 2.64 0 4 0 C5.10697816 2.81142124 6.21063123 5.62407652 7.3125 8.4375 C7.7755957 9.6121582 7.7755957 9.6121582 8.24804688 10.81054688 C14 25.5234375 14 25.5234375 14 30 C12.35 30 10.7 30 9 30 C8.34 27.36 7.68 24.72 7 22 C3.37 22.33 -0.26 22.66 -4 23 C-4.99 25.31 -5.98 27.62 -7 30 C-8.32 30 -9.64 30 -11 30 C-10.34760417 26.25128575 -9.30592394 22.85677635 -7.96875 19.296875 C-7.57042969 18.2346875 -7.17210937 17.1725 -6.76171875 16.078125 C-6.34535156 14.97984375 -5.92898437 13.8815625 -5.5 12.75 C-5.08363281 11.63625 -4.66726562 10.5225 -4.23828125 9.375 C-1.13212451 1.13212451 -1.13212451 1.13212451 0 0 Z " fill="#EDECED" transform="translate(164,174)"/>
<path d="M0 0 C1.32 0 2.64 0 4 0 C4 3.96 4 7.92 4 12 C8.95 12 13.9 12 19 12 C19 8.04 19 4.08 19 0 C20.65 0 22.3 0 24 0 C24 9.9 24 19.8 24 30 C22.68 30 21.36 30 20 30 C20 25.38 20 20.76 20 16 C14.72 16 9.44 16 4 16 C4 20.29 4 24.58 4 29 C2.68 29 1.36 29 0 29 C0 19.43 0 9.86 0 0 Z " fill="#F2F2F3" transform="translate(124,174)"/>
<path d="M0 0 C3.5060303 0.86943897 4.94966563 2.56083702 6.9375 5.48046875 C7.62901325 9.78321784 7.45307405 11.68992187 5.0625 15.35546875 C2.3501761 18.06779265 1.47508847 18.41960968 -2.375 18.85546875 C-6.0625 18.48046875 -6.0625 18.48046875 -9 16.48046875 C-11.29297397 13.14523389 -11.82423735 11.3803982 -11.5390625 7.41796875 C-10.07434113 1.46303597 -5.59166036 -0.39183984 0 0 Z " fill="#F4F3F4" transform="translate(258.0625,75.51953125)"/>
<path d="M0 0 C2.99028679 1.99352453 4.57809415 3.40255495 5.51171875 6.9375 C5.70293629 9.18111914 5.61632427 10.83193733 5 13 C2.11756811 16.29420787 0.25851556 17.76884408 -4.0625 18.5625 C-7.86464154 17.83443034 -9.44213573 16.92327345 -12 14 C-13.38186872 9.93917108 -13.44145526 6.98801891 -11.6875 3.0625 C-8.56612554 -0.75251323 -4.65415842 -0.76531094 0 0 Z " fill="#F8F8F8" transform="translate(100,76)"/>
<path d="M0 0 C3.86603917 0.55229131 5.58640503 0.90138827 8.5 3.5 C12.37082164 9.72367402 13.64802586 15.39555445 12.02734375 22.6015625 C10.38938984 27.83909177 8.14984726 30.58244878 3.5 33.5 C-0.65277542 34.36516154 -2.08283517 33.76175048 -5.6875 31.5 C-10.04109076 27.44350467 -11.60328628 22.27934493 -11.875 16.4375 C-11.3358595 10.77652472 -9.69420677 7.05910328 -6.25 2.5625 C-3.5 0.5 -3.5 0.5 0 0 Z M-7.5 9.5 C-9.11310439 14.33931316 -9.46921305 19.00594745 -7.59375 23.83203125 C-5.6030295 27.37321675 -4.27581809 29.16057958 -0.5 30.8125 C2.66766918 30.74226556 2.66766918 30.74226556 5.25 28.4375 C9.3925721 23.02914199 9.96149127 18.53351418 9.1015625 11.9140625 C8.10161743 7.90129591 6.67005543 6.17693569 3.5 3.5 C-2.37115938 2.03221015 -4.30460855 4.84385818 -7.5 9.5 Z " fill="#2B262D" transform="translate(176.5,112.5)"/>
<path d="M0 0 C0.66 0.33 1.32 0.66 2 1 C1.67 2.32 1.34 3.64 1 5 C-1.97 4.67 -4.94 4.34 -8 4 C-8.7555432 6.7412565 -8.7555432 6.7412565 -8 10 C-5.84573682 11.85397195 -3.60967092 13.25905146 -1.1640625 14.703125 C1 16 1 16 3 18 C3.5631333 22.26372358 3.45306076 24.31310142 1.0625 27.9375 C-2.95531016 30.64337215 -6.26910594 30.84163846 -11 30 C-11.99 29.34 -12.98 28.68 -14 28 C-14.1875 25.375 -14.1875 25.375 -14 23 C-13.278125 23.495 -12.55625 23.99 -11.8125 24.5 C-8.84207346 26.08422749 -7.3012342 26.3668038 -4 26 C-2.75875059 24.95448311 -2.75875059 24.95448311 -2.62890625 22.66796875 C-2.73391047 19.82200794 -2.73391047 19.82200794 -5.15234375 18.05078125 C-6.07144531 17.47714844 -6.99054688 16.90351563 -7.9375 16.3125 C-12.92584964 13.14830072 -12.92584964 13.14830072 -14 11 C-14.34503098 7.27366541 -14.48548923 4.86064 -12.625 1.5625 C-8.60845824 -0.82829866 -4.56826052 -0.48547716 0 0 Z " fill="#ECECEC" transform="translate(114,174)"/>
<path d="M0 0 C1.65 0 3.3 0 5 0 C5 8.58 5 17.16 5 26 C8.63 26 12.26 26 16 26 C16 27.32 16 28.64 16 30 C10.72 30 5.44 30 0 30 C0 20.1 0 10.2 0 0 Z " fill="#E0E0E0" transform="translate(183,174)"/>
<path d="M0 0 C0.66 0.33 1.32 0.66 2 1 C1.814375 1.78375 1.62875 2.5675 1.4375 3.375 C0.74037734 5.97089775 0.74037734 5.97089775 2 8 C3.32 8 4.64 8 6 8 C6.33 6.35 6.66 4.7 7 3 C7.33 3 7.66 3 8 3 C8.1875 6.375 8.1875 6.375 8 10 C5 12 5 12 2 12 C1.67 12.99 1.34 13.98 1 15 C-0.8025778 15.95230525 -2.61470042 16.88985682 -4.46484375 17.74609375 C-8.61681263 19.79968699 -12.51567879 22.28494204 -16.4609375 24.70703125 C-17.29882812 25.13371094 -18.13671875 25.56039062 -19 26 C-19.66 25.67 -20.32 25.34 -21 25 C-20.43152344 24.3709375 -19.86304688 23.741875 -19.27734375 23.09375 C-10.9825441 14.23853821 -10.9825441 14.23853821 -3.4296875 4.7734375 C-2.95789063 4.18820313 -2.48609375 3.60296875 -2 3 C-1.34 3 -0.68 3 0 3 C0 2.01 0 1.02 0 0 Z " fill="#2A252C" transform="translate(343,84)"/>
<path d="M0 0 C4.20935149 0.24760891 6.47627827 0.58102261 9.8125 3.25 C13.47399724 7.8530251 14.49612491 11.69931806 14.3984375 17.51171875 C13.65955147 22.12613447 11.35884906 27.64115094 8 31 C19.88 31.33 31.76 31.66 44 32 C44 32.33 44 32.66 44 33 C31.46 33 18.92 33 6 33 C6 32.01 6 31.02 6 30 C5.34 29.67 4.68 29.34 4 29 C4.639375 28.21625 5.27875 27.4325 5.9375 26.625 C9.02186355 22.6994464 9.1830185 20.59279478 9.25 15.625 C9.27578125 14.48289063 9.3015625 13.34078125 9.328125 12.1640625 C8.97325058 8.74205915 8.45573271 7.36946575 6 5 C2.04599009 4.49523278 -0.60686626 4.9119177 -4 7 C-2.79618552 4.50638429 -1.54571278 2.31856917 0 0 Z " fill="#3C383E" transform="translate(243,117)"/>
<path d="M0 0 C4.69436353 2.34718177 7.1994599 4.94692328 9.3125 9.6484375 C11.15441112 15.94861077 10.67466336 22.06224734 8 28 C7.01 27.67 6.02 27.34 5 27 C5.165 26.34 5.33 25.68 5.5 25 C6.76275654 17.42346076 6.15570001 12.46105184 2 6 C0.05925114 3.65113568 0.05925114 3.65113568 -3.4375 3.5625 C-7.05870062 3.61398641 -7.05870062 3.61398641 -8.875 6.0625 C-10.14649085 9.05020423 -10.14649085 9.05020423 -10.5 12.625 C-11.03152969 16.2128254 -11.42587353 16.74079325 -14 19 C-14.62460568 9.24921136 -14.62460568 9.24921136 -12.25 4.5 C-8.09382196 -0.1179756 -6.3071587 -1.89214761 0 0 Z " fill="#322D33" transform="translate(112,118)"/>
<path d="M0 0 C6.75 0.75 6.75 0.75 9 3 C8.625 6.125 8.625 6.125 8 9 C6.68 9.33 5.36 9.66 4 10 C3.67 8.68 3.34 7.36 3 6 C2.01 6.495 2.01 6.495 1 7 C1.33 8.65 1.66 10.3 2 12 C0.09273249 13.20253816 -1.8262012 14.38658949 -3.75 15.5625 C-4.81734375 16.22378906 -5.8846875 16.88507812 -6.984375 17.56640625 C-10 19 -10 19 -12.27734375 18.83203125 C-14.68687869 17.66824227 -15.70472151 16.31786677 -17 14 C-16.67 13.01 -16.34 12.02 -16 11 C-14.02 11.495 -14.02 11.495 -12 12 C-12 12.99 -12 13.98 -12 15 C-11.34 15 -10.68 15 -10 15 C-10.33 13.35 -10.66 11.7 -11 10 C-9.02 9.34 -7.04 8.68 -5 8 C-4.34 8.66 -3.68 9.32 -3 10 C-3.33 8.68 -3.66 7.36 -4 6 C-2.68 5.34 -1.36 4.68 0 4 C0 2.68 0 1.36 0 0 Z " fill="#1E1920" transform="translate(148,32)"/>
<path d="M0 0 C1.65 0 3.3 0 5 0 C5 9.9 5 19.8 5 30 C3.35 30 1.7 30 0 30 C0 20.1 0 10.2 0 0 Z " fill="#E3E2E3" transform="translate(252,174)"/>
<path d="M0 0 C1.65 0 3.3 0 5 0 C5 9.9 5 19.8 5 30 C3.35 30 1.7 30 0 30 C0 20.1 0 10.2 0 0 Z " fill="#E1E0E1" transform="translate(204,174)"/>
<path d="M0 0 C0.33 0 0.66 0 1 0 C1 3.3 1 6.6 1 10 C2.98 9.34 4.96 8.68 7 8 C7 7.34 7 6.68 7 6 C5.68 6.33 4.36 6.66 3 7 C3.66 6.01 4.32 5.02 5 4 C6.9453125 3.70703125 6.9453125 3.70703125 9.125 3.8125 C10.40375 3.874375 11.6825 3.93625 13 4 C13.8125 6.0625 13.8125 6.0625 14 9 C12.75890179 11.75477406 11.20497666 13.93422641 9 16 C5.6875 16.9375 5.6875 16.9375 3 17 C2.34 19.97 1.68 22.94 1 26 C0.67 26 0.34 26 0 26 C0 17.42 0 8.84 0 0 Z " fill="#272229" transform="translate(188,174)"/>
<path d="M0 0 C0.8125 2.0625 0.8125 2.0625 1 5 C-0.24109821 7.75477406 -1.79502334 9.93422641 -4 12 C-7.3125 12.9375 -7.3125 12.9375 -10 13 C-10.33 13.99 -10.66 14.98 -11 16 C-11.33 16 -11.66 16 -12 16 C-12.13489391 13.73078464 -12.23193995 11.4592933 -12.3125 9.1875 C-12.37050781 7.92292969 -12.42851562 6.65835937 -12.48828125 5.35546875 C-12 2 -12 2 -9.71875 0.03125 C-6.15860693 -1.3191491 -3.67136513 -0.79186307 0 0 Z " fill="#252027" transform="translate(12,8)"/>
<path d="M0 0 C1.21236328 0.02707031 1.21236328 0.02707031 2.44921875 0.0546875 C3.37154297 0.08949219 3.37154297 0.08949219 4.3125 0.125 C5.1875 2.125 5.1875 2.125 5.3125 5.125 C3.73027741 8.18208008 1.93183109 10.87906292 -0.6875 13.125 C-3.3984375 13.35546875 -3.3984375 13.35546875 -5.6875 13.125 C-6.0175 14.115 -6.3475 15.105 -6.6875 16.125 C-7.0175 16.125 -7.3475 16.125 -7.6875 16.125 C-7.76825665 13.83390403 -7.82657731 11.54200733 -7.875 9.25 C-7.90980469 7.97382812 -7.94460937 6.69765625 -7.98046875 5.3828125 C-7.88378906 4.30773437 -7.78710938 3.23265625 -7.6875 2.125 C-4.48369983 -0.01086678 -3.66810033 -0.10632175 0 0 Z " fill="#252027" transform="translate(7.6875,63.875)"/>
<path d="M0 0 C1.19923358 3.39782849 1.12337756 4.72520452 -0.375 8.0625 C-3.76096652 11.85155777 -7.29199245 13.28982632 -12 15 C-12.13496251 12.89758397 -12.23197307 10.7927039 -12.3125 8.6875 C-12.37050781 7.51574219 -12.42851562 6.34398437 -12.48828125 5.13671875 C-12 2 -12 2 -9.71875 0.0625 C-6.15476685 -1.330321 -3.68741415 -0.79532462 0 0 Z " fill="#262128" transform="translate(12,122)"/>
<path d="M0 0 C0.66 0.33 1.32 0.66 2 1 C1.43417868 4.96074927 0.30304271 7.72259306 -2 11 C-5 13 -5 13 -9 13 C-9.33 13.99 -9.66 14.98 -10 16 C-10.33 16 -10.66 16 -11 16 C-11.08075665 13.70890403 -11.13907731 11.41700733 -11.1875 9.125 C-11.22230469 7.84882813 -11.25710938 6.57265625 -11.29296875 5.2578125 C-11.19628906 4.18273437 -11.09960938 3.10765625 -11 2 C-6.94641576 -0.70238949 -4.81689896 -0.22937614 0 0 Z " fill="#262128" transform="translate(11,178)"/>
<path d="M0 0 C0 5.61 0 11.22 0 17 C-1.32 17.33 -2.64 17.66 -4 18 C-4.33 18.66 -4.66 19.32 -5 20 C-6.65 15.05 -8.3 10.1 -10 5 C-2.25 0 -2.25 0 0 0 Z " fill="#221D24" transform="translate(183,184)"/>
<path d="M0 0 C1.875 1.125 1.875 1.125 3 3 C3.39365568 6.14924548 3.52854531 8.11909116 1.875 10.875 C-0.88090884 12.52854531 -2.85075452 12.39365568 -6 12 C-7.875 10.875 -7.875 10.875 -9 9 C-9.39365568 5.85075452 -9.52854531 3.88090884 -7.875 1.125 C-5.11909116 -0.52854531 -3.14924548 -0.39365568 0 0 Z " fill="#FAFAFA" transform="translate(313,91)"/>
<path d="M0 0 C1.875 1.0625 1.875 1.0625 3 3 C3.375 6.5625 3.375 6.5625 3 10 C-0.46923881 12.31282587 -1.92205575 12.42478586 -6 12 C-7.875 10.875 -7.875 10.875 -9 9 C-9.39365568 5.85075452 -9.52854531 3.88090884 -7.875 1.125 C-5.11909116 -0.52854531 -3.14924548 -0.39365568 0 0 Z " fill="#F7F6F7" transform="translate(45,91)"/>
<path d="M0 0 C1.32 0.66 2.64 1.32 4 2 C3.75 4.375 3.75 4.375 3 7 C1 8 1 8 -1 9 C-1.81171228 11.55519921 -1.81171228 11.55519921 -2 14 C-3.32 14.33 -4.64 14.66 -6 15 C-6 13 -6 13 -5 12 C-6.32 11.67 -7.64 11.34 -9 11 C-9.6875 9.1875 -9.6875 9.1875 -10 7 C-8.75 5.25 -8.75 5.25 -7 4 C-6.01 4 -5.02 4 -4 4 C-1.81222534 2.0624994 -1.81222534 2.0624994 0 0 Z " fill="#1E1920" transform="translate(279,71)"/>
<path d="M0 0 C1.9375 0.9375 1.9375 0.9375 3.25 2.6875 C4.0943112 5.45070029 3.70193018 7.18555136 2.9375 9.9375 C1.9475 10.2675 0.9575 10.5975 -0.0625 10.9375 C-0.0625 9.9475 -0.0625 8.9575 -0.0625 7.9375 C-1.3825 7.6075 -2.7025 7.2775 -4.0625 6.9375 C-4.3925 8.2575 -4.7225 9.5775 -5.0625 10.9375 C-6.3825 11.2675 -7.7025 11.5975 -9.0625 11.9375 C-10.0525 10.2875 -11.0425 8.6375 -12.0625 6.9375 C-9.81802339 4.3563519 -8.3131864 3.7501716 -5.0625 2.9375 C-4.5675 2.40125 -4.0725 1.865 -3.5625 1.3125 C-2.0625 -0.0625 -2.0625 -0.0625 0 0 Z " fill="#1E1920" transform="translate(85.0625,189.0625)"/>
<path d="M0 0 C-0.33 1.32 -0.66 2.64 -1 4 C-3.375 4.625 -3.375 4.625 -6 5 C-6.66 4.34 -7.32 3.68 -8 3 C-8 3.99 -8 4.98 -8 6 C-8 6.66 -8 7.32 -8 8 C-9.32 8 -10.64 8 -12 8 C-12.33 8.99 -12.66 9.98 -13 11 C-14.65 11.33 -16.3 11.66 -18 12 C-21 8.25 -21 8.25 -21 6 C-19.68 6.33 -18.36 6.66 -17 7 C-17 6.01 -17 5.02 -17 4 C-16.01 4 -15.02 4 -14 4 C-13.484375 3.34 -12.96875 2.68 -12.4375 2 C-8.65746793 -1.10156477 -4.70875503 -0.32350225 0 0 Z " fill="#1E1920" transform="translate(63,150)"/>
<path d="M0 0 C0.99 0.33 1.98 0.66 3 1 C4.23076923 6.41538462 4.23076923 6.41538462 3.0625 9.375 C2.711875 9.91125 2.36125 10.4475 2 11 C1.34 11 0.68 11 0 11 C0 10.01 0 9.02 0 8 C-0.99 8 -1.98 8 -3 8 C-3.66 9.32 -4.32 10.64 -5 12 C-6.32 12 -7.64 12 -9 12 C-9.33 10.02 -9.66 8.04 -10 6 C-8.125 4.9375 -8.125 4.9375 -6 4 C-5.34 4.33 -4.68 4.66 -4 5 C-3.566875 4.0409375 -3.566875 4.0409375 -3.125 3.0625 C-2 1 -2 1 0 0 Z " fill="#1F1A21" transform="translate(84,75)"/>
<path d="M0 0 C-1.41292095 4.8274799 -3.42974154 8.7162359 -6 13 C-8.64 13 -11.28 13 -14 13 C-11.26545322 5.63775866 -8.6418211 0 0 0 Z " fill="#F3F3F3" transform="translate(304,136)"/>
<path d="M0 0 C0.99 0.33 1.98 0.66 3 1 C3.34990273 7.5315177 2.98164654 13.36749256 -1.32421875 18.61328125 C-3.89496001 21.00859135 -5.77006846 21.96904768 -9.25 22.4375 C-12 22 -12 22 -14 20 C-13.34 20 -12.68 20 -12 20 C-11.67 19.34 -11.34 18.68 -11 18 C-10.05125 17.896875 -9.1025 17.79375 -8.125 17.6875 C-4.88311718 17.3293198 -4.88311718 17.3293198 -3.37890625 14.8515625 C-1.87415985 11.739764 -1.30024903 9.10174323 -0.8125 5.6875 C-0.65394531 4.61886719 -0.49539062 3.55023438 -0.33203125 2.44921875 C-0.22246094 1.64097656 -0.11289063 0.83273438 0 0 Z " fill="#2E292F" transform="translate(186,124)"/>
<path d="M0 0 C1.31872662 0.39651917 2.62997101 0.81798691 3.9375 1.25 C4.66839844 1.48203125 5.39929688 1.7140625 6.15234375 1.953125 C8 3 8 3 8.75390625 5.109375 C8.83511719 5.73328125 8.91632813 6.3571875 9 7 C5.25 10 5.25 10 3 10 C2.34 9.34 1.68 8.68 1 8 C0.34 9.65 -0.32 11.3 -1 13 C-3.2477975 10.94766315 -4.0022242 9.99332739 -5 7 C-3.35 6.34 -1.7 5.68 0 5 C-0.2784375 4.0409375 -0.2784375 4.0409375 -0.5625 3.0625 C-0.706875 2.381875 -0.85125 1.70125 -1 1 C-0.67 0.67 -0.34 0.34 0 0 Z " fill="#1E1920" transform="translate(335,202)"/>
<path d="M0 0 C7.75 0.75 7.75 0.75 10 3 C10 4.32 10 5.64 10 7 C8.35 7.66 6.7 8.32 5 9 C4.67 8.01 4.34 7.02 4 6 C3.01 6.495 3.01 6.495 2 7 C1.34444881 9.52733235 1.34444881 9.52733235 1 12 C0.34 12 -0.32 12 -1 12 C-1.99 10.02 -2.98 8.04 -4 6 C-3.34 5.566875 -2.68 5.13375 -2 4.6875 C-1.01 3.8521875 -1.01 3.8521875 0 3 C0 2.01 0 1.02 0 0 Z " fill="#1E1920" transform="translate(53,203)"/>
<path d="M0 0 C7.75 0.75 7.75 0.75 10 3 C9.625 5.625 9.625 5.625 9 8 C7.1875 8.625 7.1875 8.625 5 9 C4.01 8.34 3.02 7.68 2 7 C1.67 8.65 1.34 10.3 1 12 C0.34 12 -0.32 12 -1 12 C-2.4606285 9.35261084 -3 8.10551666 -3 5 C-1.68 4.34 -0.36 3.68 1 3 C0.67 2.01 0.34 1.02 0 0 Z " fill="#1E1920" transform="translate(53,89)"/>
<path d="M0 0 C6.875 1.875 6.875 1.875 8 3 C8.125 5.5 8.125 5.5 8 8 C7 9 7 9 4.4375 9.0625 C3.633125 9.041875 2.82875 9.02125 2 9 C2 8.34 2 7.68 2 7 C1.01 7 0.02 7 -1 7 C-0.67 8.65 -0.34 10.3 0 12 C-0.99 12 -1.98 12 -3 12 C-3.66 10.35 -4.32 8.7 -5 7 C-4.0409375 6.1028125 -4.0409375 6.1028125 -3.0625 5.1875 C-0.79689611 3.09189663 -0.79689611 3.09189663 0 0 Z " fill="#1E1920" transform="translate(335,32)"/>
<path d="M0 0 C0.66 0.33 1.32 0.66 2 1 C1.67 2.32 1.34 3.64 1 5 C-1.97 4.67 -4.94 4.34 -8 4 C-9.98 8.455 -9.98 8.455 -12 13 C-14 11 -14 11 -14.375 7.625 C-14 4 -14 4 -12.625 1.5625 C-8.60845824 -0.82829866 -4.56826052 -0.48547716 0 0 Z " fill="#F3F3F3" transform="translate(114,174)"/>
<path d="M0 0 C0.99 0.33 1.98 0.66 3 1 C4.1875 3.5625 4.1875 3.5625 5 6 C3.76055724 6.86941494 2.50792941 7.72005457 1.25 8.5625 C0.55390625 9.03816406 -0.1421875 9.51382813 -0.859375 10.00390625 C-3 11 -3 11 -5.265625 10.65234375 C-5.83796875 10.43707031 -6.4103125 10.22179687 -7 10 C-7 9.34 -7 8.68 -7 8 C-7.99 7.67 -8.98 7.34 -10 7 C-9.67 5.68 -9.34 4.36 -9 3 C-7.02 3.495 -7.02 3.495 -5 4 C-5 4.99 -5 5.98 -5 7 C-4.01 7.33 -3.02 7.66 -2 8 C-2.66 6.35 -3.32 4.7 -4 3 C-3.01 2.67 -2.02 2.34 -1 2 C-0.67 2.33 -0.34 2.66 0 3 C0 2.01 0 1.02 0 0 Z " fill="#1D181F" transform="translate(235,210)"/>
<path d="M0 0 C0.33 0 0.66 0 1 0 C1 8.58 1 17.16 1 26 C5.90754997 26.46225016 5.90754997 26.46225016 9 24 C9 26.64 9 29.28 9 32 C8.2575 31.67 7.515 31.34 6.75 31 C3.86116688 29.77217129 3.86116688 29.77217129 0 30 C0 20.1 0 10.2 0 0 Z " fill="#2E2A30" transform="translate(243,174)"/>
<path d="M0 0 C4 7.71428571 4 7.71428571 4 12 C2.35 12 0.7 12 -1 12 C-1.66 9.36 -2.32 6.72 -3 4 C-5.97 4 -8.94 4 -12 4 C-12 3.67 -12 3.34 -12 3 C-10.7625 2.87625 -9.525 2.7525 -8.25 2.625 C-5.1237803 2.24253695 -2.71120763 1.69450477 0 0 Z " fill="#E7E7E7" transform="translate(174,192)"/>
<path d="M0 0 C5.21110062 0.24814765 7.44249218 1.92075466 10.8984375 5.52734375 C12 7 12 7 12 9 C9.36 9 6.72 9 4 9 C0 2.25 0 2.25 0 0 Z " fill="#F1F0F1" transform="translate(50,140)"/>
<path d="M0 0 C0.66 0.33 1.32 0.66 2 1 C1.67 4.63 1.34 8.26 1 12 C-0.65 12.33 -2.3 12.66 -4 13 C-4.66 11.35 -5.32 9.7 -6 8 C-5.34 7.34 -4.68 6.68 -4 6 C-2.68 6 -1.36 6 0 6 C-0.2784375 4.7934375 -0.2784375 4.7934375 -0.5625 3.5625 C-0.706875 2.716875 -0.85125 1.87125 -1 1 C-0.67 0.67 -0.34 0.34 0 0 Z " fill="#1E1920" transform="translate(349,194)"/>
<path d="M0 0 C2.84326464 -0.23053497 4.46145349 -0.35903101 6.875 1.25 C8 3 8 3 8 5.0625 C7 7 7 7 4.4375 8.25 C3.633125 8.4975 2.82875 8.745 2 9 C0.4375 6.1875 0.4375 6.1875 -1 3 C-0.67 2.01 -0.34 1.02 0 0 Z " fill="#1E1920" transform="translate(244,203)"/>
<path d="M0 0 C1.485 0.99 1.485 0.99 3 2 C4.32 2 5.64 2 7 2 C7.33 3.98 7.66 5.96 8 8 C6.35 8.66 4.7 9.32 3 10 C-0.22265625 4.82421875 -0.22265625 4.82421875 -1 3 C-0.67 2.01 -0.34 1.02 0 0 Z " fill="#1E1920" transform="translate(149,88)"/>
<path d="M0 0 C0.33 0.99 0.66 1.98 1 3 C0.34 3.66 -0.32 4.32 -1 5 C10.88 5.33 22.76 5.66 35 6 C35 6.33 35 6.66 35 7 C22.46 7 9.92 7 -3 7 C-2 2 -2 2 0 0 Z " fill="#353037" transform="translate(252,143)"/>
<path d="M0 0 C2.95183101 2.95183101 3.08663988 5.95511947 4 10 C1.69 10 -0.62 10 -3 10 C-2.69201674 8.51988629 -2.378482 7.04092675 -2.0625 5.5625 C-1.88847656 4.73878906 -1.71445313 3.91507813 -1.53515625 3.06640625 C-1 1 -1 1 0 0 Z " fill="#332F35" transform="translate(165,182)"/>
<path d="M0 0 C-0.33 0.99 -0.66 1.98 -1 3 C-1.804375 3.28875 -2.60875 3.5775 -3.4375 3.875 C-6.23928441 4.77944219 -6.23928441 4.77944219 -7.3125 7.625 C-7.539375 8.40875 -7.76625 9.1925 -8 10 C-8.99 10 -9.98 10 -11 10 C-11 6.34091927 -9.72672325 5.0498024 -7.37109375 2.3671875 C-4.95689531 -0.04013288 -3.21180847 -1.60590423 0 0 Z " fill="#363238" transform="translate(301,134)"/>
<path d="M0 0 C0.99 0.33 1.98 0.66 3 1 C4.1875 3.5625 4.1875 3.5625 5 6 C2 8 2 8 -2 8 C-2.66 6.35 -3.32 4.7 -4 3 C-3.01 3 -2.02 3 -1 3 C-0.67 2.01 -0.34 1.02 0 0 Z " fill="#1E1920" transform="translate(327,40)"/>
<path d="M0 0 C1.32 0.66 2.64 1.32 4 2 C4 3.65 4 5.3 4 7 C2.35 7.33 0.7 7.66 -1 8 C-1.66 6.35 -2.32 4.7 -3 3 C-2.01 2.01 -1.02 1.02 0 0 Z " fill="#1E1920" transform="translate(346,29)"/>
<path d="M0 0 C1.32 1.32 2.64 2.64 4 4 C3.67 4.99 3.34 5.98 3 7 C0.4375 8.1875 0.4375 8.1875 -2 9 C-2.99 7.35 -3.98 5.7 -5 4 C-4.34 3.34 -3.68 2.68 -3 2 C-2.67 2.99 -2.34 3.98 -2 5 C-1.34 5 -0.68 5 0 5 C-0.2784375 4.0409375 -0.2784375 4.0409375 -0.5625 3.0625 C-0.706875 2.381875 -0.85125 1.70125 -1 1 C-0.67 0.67 -0.34 0.34 0 0 Z " fill="#1D181F" transform="translate(236,96)"/>
<path d="M0 0 C0.66 1.65 1.32 3.3 2 5 C-1.75 8 -1.75 8 -4 8 C-4.66 6.35 -5.32 4.7 -6 3 C-3.375 0 -3.375 0 0 0 Z " fill="#1E1920" transform="translate(342,90)"/>
<path d="M0 0 C1.9375 0.6875 1.9375 0.6875 4 2 C4.75 4.625 4.75 4.625 5 7 C3.35 7.66 1.7 8.32 0 9 C-1.32 7.02 -2.64 5.04 -4 3 C-1 2 -1 2 0 2 C0 1.34 0 0.68 0 0 Z " fill="#1D181F" transform="translate(46,210)"/>
<path d="M0 0 C1.2065625 0.0309375 1.2065625 0.0309375 2.4375 0.0625 C3.0625 2.4375 3.0625 2.4375 3.4375 5.0625 C2.7775 5.7225 2.1175 6.3825 1.4375 7.0625 C-0.6875 6.6875 -0.6875 6.6875 -2.5625 6.0625 C-2.94468767 4.40635343 -3.27645102 2.73792976 -3.5625 1.0625 C-2.5625 0.0625 -2.5625 0.0625 0 0 Z " fill="#1E1920" transform="translate(66.5625,199.9375)"/>
<path d="M0 0 C0.99 0.33 1.98 0.66 3 1 C4.1875 3.5625 4.1875 3.5625 5 6 C2 8 2 8 -0.0625 7.875 C-2.57283417 6.7413007 -3.02691202 5.51381062 -4 3 C-3.01 2.67 -2.02 2.34 -1 2 C-0.67 2.33 -0.34 2.66 0 3 C0 2.01 0 1.02 0 0 Z " fill="#1D181F" transform="translate(235,154)"/>
<path d="M0 0 C0.99 0.33 1.98 0.66 3 1 C4.1875 3.5625 4.1875 3.5625 5 6 C3.1875 7.5625 3.1875 7.5625 1 9 C0.01 8.67 -0.98 8.34 -2 8 C-3.1875 5.4375 -3.1875 5.4375 -4 3 C-3.01 3 -2.02 3 -1 3 C-1 2.34 -1 1.68 -1 1 C-0.67 0.67 -0.34 0.34 0 0 Z " fill="#1D181F" transform="translate(141,96)"/>
<path d="M0 0 C1.67542976 0.28604898 3.34385343 0.61781233 5 1 C5.625 2.875 5.625 2.875 6 5 C5.34 5.66 4.68 6.32 4 7 C2.68 7 1.36 7 0 7 C-0.38133299 5.0085944 -0.71325582 3.00720923 -1 1 C-0.67 0.67 -0.34 0.34 0 0 Z " fill="#1E1920" transform="translate(64,86)"/>
<path d="M0 0 C0.66 0 1.32 0 2 0 C4 3 4 3 4 7 C2.35 7.66 0.7 8.32 -1 9 C-2.5625 7.1875 -2.5625 7.1875 -4 5 C-3.67 4.01 -3.34 3.02 -3 2 C-2.01 2.99 -1.02 3.98 0 5 C-0.2784375 4.0409375 -0.2784375 4.0409375 -0.5625 3.0625 C-0.706875 2.381875 -0.85125 1.70125 -1 1 C-0.67 0.67 -0.34 0.34 0 0 Z " fill="#1D181F" transform="translate(141,210)"/>
<path d="M0 0 C0.99 0.33 1.98 0.66 3 1 C3.875 2.875 3.875 2.875 4 5 C2.5625 6.75 2.5625 6.75 1 8 C-0.32 7.34 -1.64 6.68 -3 6 C-2.42655063 3.13275314 -2.1385485 2.1385485 0 0 Z " fill="#1E1920" transform="translate(91,185)"/>
<path d="M0 0 C1.65 0.33 3.3 0.66 5 1 C4.67 2.32 4.34 3.64 4 5 C4.99 5 5.98 5 7 5 C7 5.99 7 6.98 7 8 C6.01 8.33 5.02 8.66 4 9 C3.731875 8.360625 3.46375 7.72125 3.1875 7.0625 C2.11332248 4.66868314 2.11332248 4.66868314 -1 4 C-0.67 2.68 -0.34 1.36 0 0 Z " fill="#1E1920" transform="translate(37,213)"/>
<path d="M0 0 C0 0.66 0 1.32 0 2 C1.32 1.34 2.64 0.68 4 0 C3 3 3 3 1 5 C0.67 5.99 0.34 6.98 0 8 C-0.99 7.67 -1.98 7.34 -3 7 C-3.33 6.01 -3.66 5.02 -4 4 C-4.66 3.67 -5.32 3.34 -6 3 C-2.25 0 -2.25 0 0 0 Z " fill="#1F1A21" transform="translate(195,10)"/>
<path d="M0 0 C1.98 0.495 1.98 0.495 4 1 C4 1.99 4 2.98 4 4 C4.99 4.33 5.98 4.66 7 5 C6.67 5.99 6.34 6.98 6 8 C3.64035727 7.59316505 2.14065912 7.10185661 0.1875 5.6875 C-1 4 -1 4 -0.6875 1.8125 C-0.460625 1.214375 -0.23375 0.61625 0 0 Z " fill="#1D181F" transform="translate(318,157)"/>
<path d="M0 0 C1.98 0.495 1.98 0.495 4 1 C4.33 2.32 4.66 3.64 5 5 C5.66 5 6.32 5 7 5 C6.67 5.99 6.34 6.98 6 8 C3.625 7.8125 3.625 7.8125 1 7 C-0.375 4.5625 -0.375 4.5625 -1 2 C-0.67 1.34 -0.34 0.68 0 0 Z " fill="#1E1920" transform="translate(132,99)"/>
<path d="M0 0 C2.0625 0.4375 2.0625 0.4375 4 1 C4 1.99 4 2.98 4 4 C4.99 4.33 5.98 4.66 7 5 C6.34 6.32 5.68 7.64 5 9 C0.23021583 5.57553957 0.23021583 5.57553957 -0.875 2.8125 C-0.91625 2.214375 -0.9575 1.61625 -1 1 C-0.67 0.67 -0.34 0.34 0 0 Z " fill="#1E1920" transform="translate(226,99)"/>
<path d="M0 0 C0.66 0.33 1.32 0.66 2 1 C2 1.66 2 2.32 2 3 C1.34 3 0.68 3 0 3 C0 5.31 0 7.62 0 10 C-1.65 8.68 -3.3 7.36 -5 6 C-5.33 6.66 -5.66 7.32 -6 8 C-6.66 7.01 -7.32 6.02 -8 5 C-7.05125 4.54625 -6.1025 4.0925 -5.125 3.625 C-1.99686321 2.19761746 -1.99686321 2.19761746 0 0 Z " fill="#2C272E" transform="translate(270,73)"/>
<path d="M0 0 C1.98 0.495 1.98 0.495 4 1 C4 1.99 4 2.98 4 4 C4.99 4.33 5.98 4.66 7 5 C6.67 5.99 6.34 6.98 6 8 C3.23737447 7.6189482 2.15856106 7.16402868 0.1875 5.125 C-0.204375 4.42375 -0.59625 3.7225 -1 3 C-0.67 2.01 -0.34 1.02 0 0 Z " fill="#1D181F" transform="translate(318,213)"/>
<path d="M0 0 C1.98 0.495 1.98 0.495 4 1 C4.33 2.32 4.66 3.64 5 5 C5.66 5 6.32 5 7 5 C6.67 5.99 6.34 6.98 6 8 C4.68 8 3.36 8 2 8 C0.1875 5.6875 0.1875 5.6875 -1 3 C-0.67 2.01 -0.34 1.02 0 0 Z " fill="#1D181F" transform="translate(132,213)"/>
<path d="M0 0 C2.1875 0.3125 2.1875 0.3125 4 1 C4 2.32 4 3.64 4 5 C2.35 5.66 0.7 6.32 -1 7 C-1.66 5.68 -2.32 4.36 -3 3 C-1.75 1.4375 -1.75 1.4375 0 0 Z " fill="#201B22" transform="translate(90,71)"/>
<path d="M0 0 C1.9375 0.3125 1.9375 0.3125 4 1 C4.33 1.99 4.66 2.98 5 4 C5.99 4 6.98 4 8 4 C7.34 5.32 6.68 6.64 6 8 C3.5625 6.8125 3.5625 6.8125 1 5 C0.1875 2.3125 0.1875 2.3125 0 0 Z " fill="#1F1A21" transform="translate(162,196)"/>
<path d="M0 0 C1.98 0.495 1.98 0.495 4 1 C4 1.99 4 2.98 4 4 C4.99 4.33 5.98 4.66 7 5 C7 5.66 7 6.32 7 7 C5.68 7.33 4.36 7.66 3 8 C0.9375 5.6875 0.9375 5.6875 -1 3 C-0.67 2.01 -0.34 1.02 0 0 Z " fill="#1D181F" transform="translate(132,157)"/>
<path d="M0 0 C2.0625 0.4375 2.0625 0.4375 4 1 C4 1.99 4 2.98 4 4 C4.99 4.33 5.98 4.66 7 5 C6.67 5.99 6.34 6.98 6 8 C4.68 7.67 3.36 7.34 2 7 C2 6.34 2 5.68 2 5 C1.34 5 0.68 5 0 5 C-0.5625 3.0625 -0.5625 3.0625 -1 1 C-0.67 0.67 -0.34 0.34 0 0 Z " fill="#1D181F" transform="translate(226,157)"/>
<path d="M0 0 C2.475 0.495 2.475 0.495 5 1 C4.67 2.32 4.34 3.64 4 5 C4.99 5 5.98 5 7 5 C6.67 5.99 6.34 6.98 6 8 C5.01 8 4.02 8 3 8 C0.19744677 5.0936485 0 4.21174952 0 0 Z " fill="#1D181F" transform="translate(37,157)"/>
<path d="M0 0 C0.99 0 1.98 0 3 0 C3 3.3 3 6.6 3 10 C2.01 10 1.02 10 0 10 C0 6.7 0 3.4 0 0 Z " fill="#FFFFFF" transform="translate(184,175)"/>
<path d="M0 0 C1.65 0.33 3.3 0.66 5 1 C3.25 6.75 3.25 6.75 1 9 C0.67 8.01 0.34 7.02 0 6 C-0.99 6 -1.98 6 -3 6 C-2.34 5.34 -1.68 4.68 -1 4 C-0.3574765 1.93125966 -0.3574765 1.93125966 0 0 Z " fill="#373239" transform="translate(316,96)"/>
<path d="M0 0 C0.66 0.33 1.32 0.66 2 1 C4.09821215 0.60061233 4.09821215 0.60061233 6 0 C5 3 5 3 3 5 C2.67 5.99 2.34 6.98 2 8 C1.01 7.67 0.02 7.34 -1 7 C-1 6.34 -1 5.68 -1 5 C-1.66 4.67 -2.32 4.34 -3 4 C-3 3.34 -3 2.68 -3 2 C-2.01 1.34 -1.02 0.68 0 0 Z " fill="#1E1920" transform="translate(4,124)"/>
<path d="M0 0 C3.375 -0.125 3.375 -0.125 7 0 C7.66 0.66 8.32 1.32 9 2 C5.54754176 4.30163882 4.05261287 4.34490322 0 4 C-0.66 3.34 -1.32 2.68 -2 2 C-1.34 2 -0.68 2 0 2 C0 1.34 0 0.68 0 0 Z " fill="#39353B" transform="translate(174,142)"/>
<path d="M0 0 C3.4375 0.25 3.4375 0.25 5.4375 1.25 C5.4375 1.91 5.4375 2.57 5.4375 3.25 C1.4775 3.25 -2.4825 3.25 -6.5625 3.25 C-3.5625 0.25 -3.5625 0.25 0 0 Z " fill="#262128" transform="translate(101.5625,233.75)"/>
<path d="M0 0 C0 0.66 0 1.32 0 2 C1.32 1.67 2.64 1.34 4 1 C4 1.66 4 2.32 4 3 C2.03533587 4.06775224 0.03144641 5.06553465 -2 6 C-2.66 5.67 -3.32 5.34 -4 5 C-4 4.67 -4 4.34 -4 4 C-4.66 3.67 -5.32 3.34 -6 3 C-2.25 0 -2.25 0 0 0 Z " fill="#1F1A21" transform="translate(6,180)"/>
<path d="M0 0 C0.99 0.33 1.98 0.66 3 1 C2.835 1.598125 2.67 2.19625 2.5 2.8125 C1.8885876 5.11344336 1.8885876 5.11344336 2 8 C1.01 7.67 0.02 7.34 -1 7 C-2.1875 4.4375 -2.1875 4.4375 -3 2 C-2.01 1.34 -1.02 0.68 0 0 Z " fill="#1E1920" transform="translate(241,93)"/>
<path d="M0 0 C1.98 0.99 1.98 0.99 4 2 C4 3.65 4 5.3 4 7 C2.68 7.33 1.36 7.66 0 8 C0 5.36 0 2.72 0 0 Z " fill="#1F1A21" transform="translate(265,79)"/>
<path d="M0 0 C0.66 0.66 1.32 1.32 2 2 C4.10820797 1.6814823 4.10820797 1.6814823 6 1 C3.97958823 4.03061766 3.24314437 4.72239767 0 6 C-0.99 6 -1.98 6 -3 6 C-3.33 4.68 -3.66 3.36 -4 2 C-2.68 1.34 -1.36 0.68 0 0 Z " fill="#1F1A21" transform="translate(288,66)"/>
<path d="M0 0 C1.97656335 0.31521179 3.9369525 0.72734234 5.89453125 1.14453125 C6.22453125 1.80453125 6.55453125 2.46453125 6.89453125 3.14453125 C2.60453125 3.14453125 -1.68546875 3.14453125 -6.10546875 3.14453125 C-2.10546875 0.14453125 -2.10546875 0.14453125 0 0 Z " fill="#272229" transform="translate(6.10546875,233.85546875)"/>
<path d="M0 0 C0.33 2.31 0.66 4.62 1 7 C-0.32 7 -1.64 7 -3 7 C-3.66 5.35 -4.32 3.7 -5 2 C-2 0 -2 0 0 0 Z " fill="#1E1920" transform="translate(243,207)"/>
<path d="M0 0 C0.433125 0.598125 0.86625 1.19625 1.3125 1.8125 C2.90681105 3.98975883 2.90681105 3.98975883 4.6875 5.625 C6 7 6 7 6 9 C5.01 9.33 4.02 9.66 3 10 C-1.06153846 4.58461538 -1.06153846 4.58461538 -0.75 1.625 C-0.5025 1.08875 -0.255 0.5525 0 0 Z " fill="#1D181F" transform="translate(69,80)"/>
<path d="M0 0 C2.00894987 0.31505671 4.00196224 0.72722595 5.9921875 1.14453125 C6.3221875 1.80453125 6.6521875 2.46453125 6.9921875 3.14453125 C3.0321875 3.14453125 -0.9278125 3.14453125 -5.0078125 3.14453125 C-2.0078125 0.14453125 -2.0078125 0.14453125 0 0 Z " fill="#272229" transform="translate(289.0078125,233.85546875)"/>
<path d="M0 0 C2.97851562 0.53710938 2.97851562 0.53710938 5.95703125 1.07421875 C5.95703125 1.73421875 5.95703125 2.39421875 5.95703125 3.07421875 C2.32703125 3.07421875 -1.30296875 3.07421875 -5.04296875 3.07421875 C-2.04296875 0.07421875 -2.04296875 0.07421875 0 0 Z " fill="#272229" transform="translate(195.04296875,233.92578125)"/>
<path d="M0 0 C0 0.66 0 1.32 0 2 C1.32 1.67 2.64 1.34 4 1 C1.64722731 3.72426311 -0.62496331 4.8141763 -4 6 C-4 5.34 -4 4.68 -4 4 C-4.66 3.67 -5.32 3.34 -6 3 C-2.25 0 -2.25 0 0 0 Z " fill="#1E1920" transform="translate(101,66)"/>
<path d="M0 0 C1.32 0.33 2.64 0.66 4 1 C3.67 1.66 3.34 2.32 3 3 C4.32 2.67 5.64 2.34 7 2 C6.67 2.99 6.34 3.98 6 5 C5.01 5 4.02 5 3 5 C2.67 5.66 2.34 6.32 2 7 C1.34 4.69 0.68 2.38 0 0 Z " fill="#373238" transform="translate(176,197)"/>
<path d="M0 0 C0 2.31 0 4.62 0 7 C-0.99 7 -1.98 7 -3 7 C-3.66 5.02 -4.32 3.04 -5 1 C-2 0 -2 0 0 0 Z " fill="#1D181F" transform="translate(335,151)"/>
<path d="M0 0 C0.99 0.66 1.98 1.32 3 2 C1.25 4.0625 1.25 4.0625 -1 6 C-3.25 5.75 -3.25 5.75 -5 5 C-5 4.34 -5 3.68 -5 3 C-3.35 3 -1.7 3 0 3 C0 2.01 0 1.02 0 0 Z " fill="#1E1920" transform="translate(257,201)"/>
<path d="M0 0 C1.5625 1.1875 1.5625 1.1875 3 3 C2.6875 5.6875 2.6875 5.6875 2 8 C-0.64 8 -3.28 8 -6 8 C-6 7.67 -6 7.34 -6 7 C-3.69 7 -1.38 7 1 7 C0.649375 6.401875 0.29875 5.80375 -0.0625 5.1875 C-1 3 -1 3 0 0 Z " fill="#332F35" transform="translate(61,142)"/>
<path d="M0 0 C0.66 0.33 1.32 0.66 2 1 C0.41641358 4.16717283 -0.45263699 5.73268318 -3.6875 7.3125 C-4.450625 7.539375 -5.21375 7.76625 -6 8 C-4.73058503 4.08597051 -3.48832306 2.20927127 0 0 Z " fill="#3A353B" transform="translate(173,113)"/>
<path d="M0 0 C0 3.57575896 -1.08840607 5.05295935 -3 8 C-3.99 7.67 -4.98 7.34 -6 7 C-4.60667426 3.63279613 -3.0210714 2.0140476 0 0 Z " fill="#1F1A21" transform="translate(9,10)"/>
<path d="M0 0 C2.64 0 5.28 0 8 0 C5.06171403 2.50298434 2.82097239 3.46930939 -1 4 C-0.67 2.68 -0.34 1.36 0 0 Z " fill="#302B32" transform="translate(288,126)"/>
<path d="M0 0 C0.99 0.33 1.98 0.66 3 1 C3 3.64 3 6.28 3 9 C0.90250005 6.64031256 0.03094296 5.45383006 -0.1875 2.25 C-0.125625 1.5075 -0.06375 0.765 0 0 Z " fill="#3F3A40" transform="translate(186,124)"/>
<path d="M0 0 C0.99 0.33 1.98 0.66 3 1 C0.6875 3.5 0.6875 3.5 -2 6 C-2.99 6 -3.98 6 -5 6 C-3.35 4.02 -1.7 2.04 0 0 Z " fill="#3C373D" transform="translate(327,103)"/>
</svg>
